<svg width="70" height="20" viewBox="0 0 70 20" fill="none" xmlns="http://www.w3.org/2000/svg">
<g clip-path="url(#clip0_26_1518)">
<path d="M13.2794 2.39147L4.85944 10.5075L6.51868 12.1518L14.9386 4.03752L17.3587 6.43586L8.93871 14.5518L10.034 15.636C10.1838 15.7847 10.3852 15.8599 10.6382 15.8614C10.8519 15.8629 11.0592 15.7665 11.2599 15.5721L19.0259 8.08654L21.4314 10.4707L13.6645 17.9548C12.8321 18.7574 11.7883 19.1545 10.5331 19.146C9.33638 19.1379 8.30087 18.7005 7.4266 17.8338L0.00012207 10.4745L10.8667 0.000366211L13.2794 2.39147Z" fill="#787878"/>
<path d="M31.3088 4.57759H27.4811V5.32524H31.3088V6.41576H27.4811V6.90764C27.4819 6.94283 27.4899 6.97751 27.5048 7.00955C27.5198 7.04159 27.5412 7.07032 27.5679 7.09398C27.6168 7.14162 27.687 7.16554 27.7783 7.16573H31.3088V8.2496H27.7783C27.3998 8.2496 27.0669 8.10917 26.7795 7.82832C26.5058 7.56078 26.3688 7.22997 26.3687 6.83589V3.49054H31.3088V4.57759Z" fill="#787878"/>
<path d="M34.7131 3.4906H40.0437V5.28943C40.0437 6.12292 39.8667 6.7965 39.5126 7.31017C39.0808 7.93727 38.4173 8.25072 37.5222 8.25053H34.7131V3.4906ZM35.8321 7.09491H37.4218C38.3571 7.09491 38.8247 6.47244 38.8247 5.22751V4.57765H35.8321V7.09491Z" fill="#787878"/>
<path d="M43.4479 3.4906H44.5601V8.25053H43.4479V3.4906Z" fill="#787878"/>
<path d="M47.9646 8.25053V3.4906H52.9947V4.79639C52.9947 5.25355 52.8845 5.59854 52.6641 5.83136C52.9289 6.02059 53.0614 6.33944 53.0616 6.78792V7.20572C53.0616 7.51049 52.9659 7.75865 52.7745 7.95019C52.6786 8.04691 52.5635 8.12345 52.4362 8.17509C52.3089 8.22674 52.1722 8.25241 52.0344 8.25053H47.9646ZM49.0768 5.3253H51.3213C51.6422 5.3253 51.8025 5.17948 51.8023 4.88782V4.57765H49.0768V5.3253ZM49.0768 7.16319H51.3583C51.6543 7.16319 51.8023 7.03781 51.8023 6.78705C51.8023 6.53629 51.6543 6.41226 51.3583 6.41496H49.0768V7.16319Z" fill="#787878"/>
<path d="M57.5781 6.90857C57.579 6.94375 57.5871 6.97839 57.602 7.01042C57.6169 7.04245 57.6383 7.07119 57.6649 7.09491C57.7136 7.14255 57.7838 7.16647 57.8753 7.16666H61.4058V8.25053H57.8753C57.4968 8.25053 57.1639 8.11011 56.8765 7.82925C56.6028 7.56171 56.4659 7.2309 56.4659 6.83682V3.4906H57.5781V6.90857Z" fill="#787878"/>
<path d="M69.7499 4.57765H65.9222V5.3253H69.7499V6.41582H65.9222V6.9077C65.9231 6.94288 65.9312 6.97752 65.9461 7.00955C65.961 7.04158 65.9824 7.07032 66.009 7.09404C66.0581 7.14168 66.1283 7.1656 66.2194 7.16579H69.7499V8.24966H66.2194C65.8409 8.24966 65.5081 8.10924 65.2209 7.82838C64.9468 7.56084 64.8099 7.23003 64.8101 6.83595V3.4906H69.7499V4.57765Z" fill="#787878"/>
<path d="M26.3694 15.2832V11.7414H27.5423V15.2899C27.5429 15.3695 27.5756 15.4457 27.6333 15.5021C27.6909 15.5584 27.7689 15.5904 27.8504 15.5911H29.1458V11.7428H30.3116V15.5911H31.9084V11.7428H33.0809V16.7308H27.8495C27.4572 16.7301 27.0811 16.5774 26.8037 16.3063C26.5263 16.0351 26.3701 15.6675 26.3694 15.2841V15.2832Z" fill="#787878"/>
<path d="M36.6488 13.223C36.6488 12.8102 36.7924 12.463 37.0795 12.1814C37.3783 11.887 37.7272 11.7399 38.1263 11.7399H42.2577V15.2475C42.2577 15.6603 42.1141 16.0075 41.8269 16.2892C41.5281 16.5833 41.1792 16.7305 40.7802 16.7307H38.1263C37.7272 16.7307 37.3783 16.5835 37.0795 16.2892C36.7924 16.0085 36.6488 15.6613 36.6488 15.2475V13.223ZM37.8149 15.3242C37.8161 15.361 37.8248 15.3971 37.8404 15.4306C37.856 15.464 37.8782 15.4942 37.9057 15.5192C37.9666 15.5711 38.0456 15.598 38.1263 15.5945H38.4836V15.591H40.4232V15.5945H40.7802C40.8609 15.5981 40.9399 15.5711 41.0007 15.5192C41.0283 15.4942 41.0505 15.4641 41.0662 15.4306C41.0818 15.3971 41.0906 15.361 41.0919 15.3242V12.8807H38.4836V12.8773H38.1263C38.0456 12.8737 37.9665 12.9007 37.9057 12.9528C37.8782 12.9778 37.856 13.0079 37.8404 13.0414C37.8248 13.0749 37.8161 13.111 37.8149 13.1478V15.3242Z" fill="#787878"/>
<path d="M46.2623 12.1725C46.3966 12.0336 46.559 11.9235 46.7392 11.8493C46.9194 11.775 47.1135 11.7383 47.309 11.7414H51.5126V13.7228C51.5126 14.1244 51.3714 14.4643 51.089 14.7424C50.9495 14.8834 50.7813 14.9942 50.5952 15.0676L51.446 16.7308H50.2835L49.4295 15.1634H46.989V16.7308H45.8232V13.1924C45.8248 12.8022 45.9712 12.4622 46.2623 12.1725ZM47.309 12.8808C47.2674 12.8804 47.2262 12.8888 47.1881 12.9053C47.1501 12.9218 47.1161 12.9461 47.0885 12.9766C47.0576 13.0039 47.033 13.0372 47.0161 13.0744C46.9992 13.1116 46.9905 13.1518 46.9905 13.1924V14.0197H50.0609C50.0996 14.0194 50.1379 14.0116 50.1735 13.9967C50.2091 13.9818 50.2412 13.9601 50.2681 13.9328C50.2955 13.9047 50.3168 13.8713 50.3307 13.8349C50.3445 13.7984 50.3506 13.7596 50.3486 13.7208V12.8788L47.309 12.8808Z" fill="#787878"/>
<path d="M60.7831 11.7414L58.4513 14.2801L60.6991 16.7302H59.1301L57.6668 15.1354L56.2033 16.7302H55.084V11.7414H56.2497V14.9719L59.2151 11.7414H60.7831Z" fill="#787878"/>
<path d="M69.75 15.2638C69.75 15.6789 69.6088 16.0245 69.3264 16.3005C69.0323 16.5881 68.687 16.7319 68.2903 16.7319H64.3549V15.5922H68.1503C68.1966 15.5926 68.2426 15.5837 68.2853 15.5661C68.3281 15.5484 68.3666 15.5223 68.3986 15.4895C68.454 15.4389 68.493 15.3735 68.5108 15.3014V14.7711H64.3513V13.2095C64.3513 12.7944 64.4925 12.4487 64.7749 12.1725C65.0692 11.8851 65.4146 11.7414 65.811 11.7414H69.7464V12.8808H65.8113C65.7649 12.8805 65.7189 12.8894 65.6762 12.9071C65.6334 12.9248 65.5948 12.9508 65.5627 12.9835C65.4857 13.0607 65.4472 13.136 65.4472 13.2095V13.6988H69.7464L69.75 15.2638Z" fill="#787878"/>
</g>
<defs>
<clipPath id="clip0_26_1518">
<rect width="69.75" height="19.1471" fill="white"/>
</clipPath>
</defs>
</svg>
