<svg width="41" height="41" viewBox="0 0 41 41" fill="none" xmlns="http://www.w3.org/2000/svg">
<path d="M0.922729 15.467C0.922729 7.18277 7.63846 0.467041 15.9227 0.467041H25.9227C34.207 0.467041 40.9227 7.18277 40.9227 15.467V25.467C40.9227 33.7513 34.207 40.467 25.9227 40.467H15.9227C7.63846 40.467 0.922729 33.7513 0.922729 25.467V15.467Z" fill="url(#paint0_linear_1075_2467)"/>
<path d="M27.2008 19.736C28.6738 18.9608 29.6112 17.5818 29.3937 15.2903C29.1089 12.1535 26.6067 11.1026 23.2928 10.8095V6.46704H20.7149V10.6888C20.0452 10.6888 19.3592 10.7063 18.6725 10.7229V6.46704H16.0946V10.8095C15.1469 10.8393 14.0429 10.8244 10.9227 10.8095V13.6357C12.9575 13.5989 14.0259 13.4642 14.2706 14.8073V26.6973C14.1151 27.763 13.2864 27.6099 11.442 27.5766L10.9236 30.73C15.6238 30.73 16.0963 30.7475 16.0963 30.7475V34.4662H18.6742V30.7992C19.3771 30.8167 20.063 30.8167 20.7166 30.8167V34.467H23.2945V30.7484C27.613 30.5069 30.5003 29.387 30.8853 25.1993C31.1862 21.8394 29.6469 20.3397 27.2025 19.7369L27.2008 19.736ZM18.7226 13.8256C20.1786 13.8256 24.7317 13.3601 24.7317 16.4794C24.7317 19.4604 20.1786 19.1156 18.7226 19.1156V13.8256ZM18.7226 27.5933V21.7686C20.4633 21.7686 25.7942 21.269 25.7942 24.6805C25.7942 27.9721 20.4633 27.5924 18.7226 27.5924V27.5933Z" fill="white"/>
<defs>
<linearGradient id="paint0_linear_1075_2467" x1="24.9999" y1="-15.9995" x2="64.9999" y2="24.0005" gradientUnits="userSpaceOnUse">
<stop stop-color="#EB6B43"/>
<stop offset="1" stop-color="#D2243D"/>
</linearGradient>
</defs>
</svg>
