<svg width="40" height="40" viewBox="0 0 40 40" fill="none" xmlns="http://www.w3.org/2000/svg">
<g id="change-record-type-svgrepo-com 1">
<path id="Vector" d="M15.3852 28.8461C15.3852 28.2307 14.8468 27.6923 14.2314 27.6923H2.69291C2.07752 27.6923 1.53906 28.2307 1.53906 28.8461V37.3076C1.53906 37.923 2.07752 38.4615 2.69291 38.4615H14.2314C14.8468 38.4615 15.3852 37.923 15.3852 37.3076V28.8461Z" fill="#53565D" fill-opacity="0.5"/>
<path id="Vector_2" d="M6.23126 16.923H2.46203C1.6928 16.923 1.30818 17.6154 1.76972 18L7.92357 24.3846C8.23126 24.6154 8.6928 24.6154 9.00049 24.3846L15.1543 18C15.6159 17.5384 15.2313 16.923 14.462 16.923H10.8466C10.8466 13.0769 14.6159 9.23074 18.462 9.23074V4.61536C11.5389 4.61536 6.23126 9.99997 6.23126 16.923Z" fill="#53565D"/>
<path id="Vector_3" d="M32.1544 15.6153C31.8468 15.3846 31.3852 15.3846 31.0775 15.6153L24.9237 22C24.4621 22.4615 24.8468 23.0769 25.616 23.0769H29.3083C29.3083 27.6923 26.1544 30.7692 21.5391 30.7692V35.3846C28.4621 35.3846 33.9237 30 33.9237 23.0769H37.6929C38.4621 23.0769 38.8468 22.3846 38.3852 22L32.1544 15.6153Z" fill="#53565D" fill-opacity="0.5"/>
<path id="Vector_4" d="M38.4614 2.6923C38.4614 2.07691 37.9229 1.53845 37.3075 1.53845H25.7691C25.1537 1.53845 24.6152 2.07691 24.6152 2.6923V11.1538C24.6152 11.7692 25.1537 12.3077 25.7691 12.3077H37.3075C37.9229 12.3077 38.4614 11.7692 38.4614 11.1538V2.6923Z" fill="#53565D"/>
</g>
</svg>
