<svg width="12" height="12" viewBox="0 0 12 12" fill="none" xmlns="http://www.w3.org/2000/svg">
<path id="+" d="M11.5731 11.5727C11.004 12.1424 10.0812 12.1424 9.51206 11.5727L7.48195 9.54052C6.66255 8.72028 5.33405 8.72028 4.51465 9.54052L2.49069 11.5665C1.92091 12.1369 0.997115 12.1369 0.427335 11.5665C-0.142445 10.9962 -0.142445 10.0714 0.427335 9.50108L2.45129 7.47505C3.27069 6.65481 3.27069 5.32495 2.45129 4.50471L0.445751 2.49712C-0.123401 1.92738 -0.123401 1.00366 0.445751 0.433927C1.0149 -0.135807 1.93768 -0.135808 2.50683 0.433926L4.51237 2.44152C5.33177 3.26176 6.66028 3.26176 7.47968 2.44152L9.49137 0.427772C10.0611 -0.142591 10.9849 -0.14259 11.5547 0.427773C12.1245 0.998136 12.1245 1.92288 11.5547 2.49324L9.54303 4.50699C8.72363 5.32722 8.72363 6.65709 9.54303 7.47733L11.5731 9.50951C12.1423 10.0792 12.1423 11.003 11.5731 11.5727Z" fill="url(#paint0_linear_29_1568)"/>
<defs>
<linearGradient id="paint0_linear_29_1568" x1="-2.16039" y1="7.81654" x2="9.39888" y2="-3.21992" gradientUnits="userSpaceOnUse">
<stop stop-color="#3D4047"/>
<stop offset="1" stop-color="#2E3136"/>
</linearGradient>
</defs>
</svg>
