<svg width="21" height="21" viewBox="0 0 21 21" fill="none" xmlns="http://www.w3.org/2000/svg">
<path fill-rule="evenodd" clip-rule="evenodd" d="M5.83333 2.33333H14.9275C16.2283 2.33333 16.6997 2.46867 17.1745 2.723C17.6493 2.97733 18.0227 3.35067 18.277 3.8255C18.5313 4.30033 18.6667 4.77167 18.6667 6.0725V15.1667C18.6667 15.4761 18.7896 15.7728 19.0084 15.9916C19.2272 16.2104 19.5239 16.3333 19.8333 16.3333C20.1428 16.3333 20.4395 16.2104 20.6583 15.9916C20.8771 15.7728 21 15.4761 21 15.1667V5.98267C21 3.9025 20.783 3.14767 20.377 2.387C19.9792 1.63544 19.3646 1.02084 18.613 0.623C17.8523 0.217 17.0975 0 15.0173 0H5.83333C5.52391 0 5.22717 0.122916 5.00838 0.341709C4.78958 0.560501 4.66667 0.857247 4.66667 1.16667C4.66667 1.47609 4.78958 1.77283 5.00838 1.99162C5.22717 2.21042 5.52391 2.33333 5.83333 2.33333ZM14.8412 5.05633C14.3663 4.802 13.895 4.66667 12.5942 4.66667H3.73917C2.43833 4.66667 1.967 4.802 1.49217 5.05633C1.02245 5.30499 0.638327 5.68911 0.389667 6.15883C0.135333 6.63367 0 7.105 0 8.40583V17.2608C0 18.5605 0.135333 19.033 0.389667 19.5078C0.644 19.9827 1.01733 20.356 1.49217 20.6103C1.967 20.8647 2.43833 21 3.73917 21H12.5942C13.8938 21 14.3663 20.8647 14.8412 20.6103C15.316 20.356 15.6893 19.9827 15.9437 19.5078C16.198 19.033 16.3333 18.5617 16.3333 17.2608V8.40583C16.3333 7.105 16.198 6.63367 15.9437 6.15883C15.695 5.68911 15.3109 5.30499 14.8412 5.05633Z" fill="white"/>
</svg>
