<svg width="28" height="28" viewBox="0 0 28 28" fill="none" xmlns="http://www.w3.org/2000/svg">
<path fill-rule="evenodd" clip-rule="evenodd" d="M4.6549 19.663L3.1219 23.751C3.06303 23.9084 3.05069 24.0793 3.08635 24.2434C3.12202 24.4076 3.20417 24.558 3.32301 24.6767C3.44185 24.7954 3.59234 24.8774 3.75653 24.9129C3.92071 24.9484 4.09164 24.9359 4.2489 24.8769L8.33573 23.3439C8.8035 23.1687 9.22835 22.8954 9.58173 22.5424L21.4199 10.7042C21.4199 10.7042 21.0069 9.46637 19.7702 8.22854C18.5336 6.99187 17.2946 6.57887 17.2946 6.57887L5.4564 18.417C5.10338 18.7704 4.83009 19.1953 4.6549 19.663ZM18.9454 4.92804L20.5589 3.31454C20.8482 3.0252 21.2344 2.84087 21.6381 2.90854C22.2062 3.00187 23.0754 3.2842 23.8944 4.10437C24.7146 4.92454 24.9969 5.79254 25.0902 6.3607C25.1579 6.76437 24.9736 7.15054 24.6842 7.43987L23.0696 9.05337C23.0696 9.05337 22.6577 7.8167 21.4199 6.58004C20.1832 5.34104 18.9454 4.92804 18.9454 4.92804Z" fill="white"/>
</svg>
