<svg width="40" height="40" viewBox="0 0 40 40" fill="none" xmlns="http://www.w3.org/2000/svg">
<g id="change-record-type-svgrepo-com 1">
<path id="Vector" d="M15.3846 28.8461C15.3846 28.2307 14.8461 27.6923 14.2308 27.6923H2.6923C2.07691 27.6923 1.53845 28.2307 1.53845 28.8461V37.3076C1.53845 37.923 2.07691 38.4615 2.6923 38.4615H14.2308C14.8461 38.4615 15.3846 37.923 15.3846 37.3076V28.8461Z" fill="#53565D"/>
<path id="Vector_2" d="M6.23077 16.923H2.46154C1.69231 16.923 1.30769 17.6154 1.76923 18L7.92308 24.3846C8.23077 24.6154 8.69231 24.6154 9 24.3846L15.1538 18C15.6154 17.5384 15.2308 16.923 14.4615 16.923H10.8462C10.8462 13.0769 14.6154 9.23074 18.4615 9.23074V4.61536C11.5385 4.61536 6.23077 9.99997 6.23077 16.923Z" fill="#53565D"/>
<path id="Vector_3" d="M32.1538 15.6153C31.8461 15.3846 31.3846 15.3846 31.0769 15.6153L24.9231 22C24.4615 22.4615 24.8461 23.0769 25.6154 23.0769H29.3077C29.3077 27.6923 26.1538 30.7692 21.5385 30.7692V35.3846C28.4615 35.3846 33.9231 30 33.9231 23.0769H37.6923C38.4615 23.0769 38.8461 22.3846 38.3846 22L32.1538 15.6153Z" fill="#53565D"/>
<path id="Vector_4" d="M38.4615 2.6923C38.4615 2.07691 37.923 1.53845 37.3077 1.53845H25.7692C25.1538 1.53845 24.6154 2.07691 24.6154 2.6923V11.1538C24.6154 11.7692 25.1538 12.3077 25.7692 12.3077H37.3077C37.923 12.3077 38.4615 11.7692 38.4615 11.1538V2.6923Z" fill="#53565D"/>
</g>
</svg>
