<svg width="28" height="29" viewBox="0 0 28 29" fill="none" xmlns="http://www.w3.org/2000/svg">
<path d="M18.4298 12.344C18.5063 13.0943 18.5502 13.8204 18.5502 14.5C18.5502 15.7721 18.3965 17.2087 18.1613 18.6611C16.7089 18.8963 15.2723 19.05 14.0002 19.05C12.7338 19.05 11.2977 18.8967 9.83901 18.6607C9.60394 17.2083 9.4502 15.772 9.4502 14.5C9.4502 13.8207 9.49405 13.0944 9.57072 12.344C11.1016 12.5891 12.6289 12.75 14.0002 12.75C15.3717 12.75 16.8989 12.5891 18.4298 12.344Z" fill="#1A1C21"/>
<path d="M20.5004 11.9659C20.5951 12.8439 20.6501 13.6987 20.6501 14.5C20.6501 15.6692 20.5331 16.9519 20.3467 18.2538C22.9901 17.7022 25.4335 16.9975 26.7424 16.5963C27.1653 16.4667 27.3316 16.4151 27.5545 16.3259C27.666 16.2814 27.7681 16.236 27.9013 16.1724C27.9665 15.624 28.0001 15.0659 28.0001 14.5C28.0001 13.004 27.7655 11.5629 27.3311 10.2113L27.2179 10.2469C25.8492 10.6633 23.2871 11.3994 20.5004 11.9659Z" fill="#1A1C21"/>
<path d="M26.5357 8.25937C25.1599 8.67634 22.7722 9.35391 20.2134 9.88143C19.6239 6.29907 18.5908 2.72607 18.0938 1.10803C21.7898 2.23642 24.8365 4.85295 26.5357 8.25937Z" fill="#1A1C21"/>
<path d="M18.1493 10.2631C16.7007 10.4971 15.2687 10.65 14.0003 10.65C12.7319 10.65 11.3 10.4971 9.85156 10.2631C10.4066 6.8734 11.3974 3.41075 11.9041 1.75777C12.0337 1.33475 12.0853 1.16859 12.1745 0.945573C12.219 0.83416 12.2643 0.731973 12.3279 0.598853C12.8763 0.533573 13.4345 0.5 14.0003 0.5C14.5915 0.5 15.1741 0.53664 15.7461 0.607773C15.7582 0.654187 15.7694 0.69572 15.7805 0.735013C15.8133 0.851107 15.8646 1.01427 15.9507 1.28805L15.9598 1.31681C16.3917 2.68964 17.5362 6.51868 18.1493 10.2631Z" fill="#1A1C21"/>
<path d="M7.7871 9.88128C8.37384 6.31471 9.40019 2.76096 9.89627 1.14236L9.90682 1.10791C6.21074 2.23628 3.16398 4.85282 1.46484 8.25923C2.84062 8.6762 5.22831 9.35376 7.7871 9.88128Z" fill="#1A1C21"/>
<path d="M0.66912 10.2113C0.23464 11.5629 0 13.004 0 14.5C0 15.0852 0.0359066 15.662 0.10564 16.2284L0.32628 16.302L0.32804 16.3026L0.3302 16.3034L0.33172 16.3038C0.402733 16.3274 2.48407 17.0147 5.22504 17.6967C5.99848 17.8891 6.81743 18.0792 7.65341 18.2535C7.467 16.9518 7.35 15.6692 7.35 14.5C7.35 13.6984 7.40499 12.8436 7.49963 11.9659C4.71237 11.3992 2.14957 10.6629 0.781293 10.2466L0.771773 10.2436L0.66912 10.2113Z" fill="#1A1C21"/>
<path d="M13.9997 21.15C15.1689 21.15 16.4516 21.033 17.7535 20.8466C17.2019 23.49 16.4972 25.9334 16.096 27.2422C15.9664 27.6652 15.9148 27.8314 15.8256 28.0544C15.7811 28.1659 15.7357 28.268 15.6721 28.4012C15.1237 28.4664 14.5656 28.5 13.9997 28.5C13.4339 28.5 12.8757 28.4664 12.3273 28.4012C12.2637 28.268 12.2184 28.1659 12.1739 28.0544C12.0847 27.8315 12.0331 27.6652 11.9035 27.2423C11.5023 25.9335 10.7977 23.4903 10.2461 20.8471C11.5436 21.0328 12.8265 21.15 13.9997 21.15Z" fill="#1A1C21"/>
<path d="M4.71844 19.7346C2.98514 19.3032 1.50891 18.87 0.608398 18.5936C1.96388 23.0336 5.46687 26.5366 9.90688 27.892L9.89633 27.8576C9.46317 26.4443 8.62573 23.5556 8.02965 20.4712C6.87044 20.2471 5.7434 19.9895 4.71844 19.7346Z" fill="#1A1C21"/>
<path d="M27.3577 18.6042C25.9444 19.0374 23.0555 19.8748 19.9709 20.4708C19.3749 23.5554 18.5375 26.4442 18.1043 27.8576L18.0938 27.892C22.5338 26.5366 26.0367 23.0336 27.3922 18.5936L27.3577 18.6042Z" fill="#1A1C21"/>
<path d="M0.147461 16.264C0.195928 16.2703 0.235434 16.277 0.248541 16.2799C0.260021 16.2827 0.278008 16.2875 0.284528 16.2892L0.298941 16.2934L0.306701 16.2958L0.314861 16.2983L0.321701 16.3004C0.317861 16.2992 0.240074 16.2798 0.147461 16.264Z" fill="#1A1C21"/>
</svg>
