<svg width="210" height="47" viewBox="0 0 210 47" fill="none" xmlns="http://www.w3.org/2000/svg">
<g clip-path="url(#clip0_892_47)">
<path d="M41.7203 16.4506C41.6965 16.4171 41.6694 16.3851 41.6424 16.3531V9.60997C41.6424 6.47618 40.9373 4.09107 39.5275 2.45464C38.1176 0.818215 36.1021 0 33.4813 0C31.6294 0 30.0697 0.389199 28.8022 1.1676C28.2972 1.47435 27.8352 1.84603 27.4284 2.27294C27.0347 2.68947 26.5019 2.94995 25.9291 3.00597C25.3565 3.06198 24.7826 2.9097 24.3146 2.57746C24.0226 2.37679 23.7159 2.19797 23.3971 2.04245C22.1851 1.46569 20.854 1.17764 19.51 1.20125C17.1163 1.20125 15.2219 1.98637 13.8267 3.55662C12.4315 5.12688 11.7339 7.37348 11.7339 10.2964V16.449C5.98964 17.6754 0.0198364 20.0023 0.0198364 24.3815C0.0198364 27.4385 2.93351 29.8477 8.67946 31.542C13.4807 32.9585 19.8287 33.7392 26.5533 33.7392C33.2778 33.7392 39.6258 32.9585 44.4272 31.542C50.1731 29.8477 53.0868 27.4385 53.0868 24.3815C53.0868 20.6937 48.5703 17.5728 41.7203 16.4506ZM16.9456 10.9828C16.9456 9.60548 17.2397 8.56461 17.8276 7.86024C18.4155 7.15587 19.2911 6.80088 20.4545 6.79528C21.6225 6.79528 22.5056 7.15027 23.1037 7.86024C23.7019 8.57023 24.0008 9.61108 24.0008 10.9828V13.4274C24.0008 14.8776 29.0735 14.8456 29.0634 13.4089L29.0429 10.0221C29.0429 7.07119 30.2821 5.59515 32.7605 5.59403C34.0133 5.59403 34.9387 5.9664 35.5368 6.71116C36.135 7.45591 36.434 8.55957 36.434 10.0221V15.3874C36.4378 15.7686 36.3588 16.1462 36.2026 16.4946C36.0462 16.8428 35.8164 17.1539 35.5284 17.4063C34.1512 18.5839 31.034 19.4252 26.6924 19.4252C22.3507 19.4252 19.4183 18.5839 17.9327 17.3945C17.621 17.1429 17.3703 16.8249 17.1994 16.4639C17.0285 16.1031 16.9417 15.7087 16.9456 15.31V10.9828ZM42.9873 27.536C38.5777 28.7877 32.7368 29.4759 26.5533 29.4759C20.3698 29.4759 14.5339 28.7877 10.1193 27.536C5.30108 26.17 4.14444 24.6962 4.09017 24.3951C4.11221 24.242 4.58368 23.4814 6.47809 22.5663C7.85013 21.8933 9.64108 21.3078 11.7356 20.8149C11.7739 21.2981 11.949 21.7608 12.2406 22.1498C12.5322 22.5388 12.9286 22.8383 13.3841 23.0137C15.2174 23.6783 19.0164 25.1067 26.7823 25.1067C34.4142 25.1067 38.1452 23.7069 39.9515 23.0508C40.4227 22.8707 40.8313 22.5589 41.1277 22.153C41.4238 21.7471 41.595 21.2648 41.6203 20.7643C46.9964 21.7553 48.9841 23.8752 48.9944 24.3849C48.9622 24.6962 47.8056 26.17 42.9873 27.536Z" fill="url(#paint0_linear_892_47)"/>
<path d="M40.6875 41.7407L34.5159 37.0301C34.2282 36.7983 33.8689 36.6718 33.4983 36.6718C33.1277 36.6718 32.7685 36.7983 32.4808 37.0301L27.5233 40.8172C27.2353 41.048 26.8761 41.1738 26.5058 41.1738C26.1354 41.1738 25.7764 41.048 25.4882 40.8172L20.3256 36.8786C20.0379 36.647 19.6787 36.5205 19.3081 36.5205C18.9376 36.5205 18.5782 36.647 18.2905 36.8786L12.6938 41.1553C11.7611 41.8687 11.4609 43.403 12.0256 44.584C12.5904 45.7651 13.803 46.1437 14.7392 45.4253L18.3007 42.7098C18.5884 42.4782 18.9478 42.3517 19.3182 42.3517C19.6888 42.3517 20.0482 42.4782 20.3359 42.7098L25.4848 46.6433C25.773 46.8742 26.1322 47.0001 26.5024 47.0001C26.8727 47.0001 27.2319 46.8742 27.5199 46.6433L32.4774 42.8563C32.7654 42.6255 33.1246 42.4995 33.4949 42.4995C33.8653 42.4995 34.2243 42.6255 34.5125 42.8563L38.6421 46.0108C39.5749 46.7242 40.7893 46.3472 41.3557 45.1696C41.9205 43.9901 41.6219 42.4541 40.6875 41.7407Z" fill="url(#paint1_linear_892_47)"/>
<path d="M84.2289 24.3323C84.0881 24.2226 83.9725 24.0829 83.8903 23.9227C83.8082 23.7626 83.7616 23.5859 83.7536 23.4053C83.7464 23.2212 83.779 23.0377 83.8488 22.8678C83.9187 22.6979 84.0244 22.5456 84.1582 22.4219C85.6243 21.0463 86.3692 18.9828 86.3692 16.2953C86.3692 13.4942 85.6798 11.3929 84.3199 10.0465C82.9599 8.70018 80.8585 8.02441 78.0677 8.02441H74.7577C74.2118 8.02487 73.6882 8.2464 73.302 8.64036C72.916 9.03432 72.6989 9.5685 72.6984 10.1257V36.8692C72.698 37.427 72.9147 37.9623 73.3007 38.3573C73.6869 38.7522 74.2109 38.9746 74.7577 38.9756H79.421C81.7466 38.9756 83.5717 38.274 84.8473 36.8916C86.1231 35.5091 86.7584 33.554 86.7584 31.0589C86.7584 27.914 85.9074 25.6512 84.2289 24.3323ZM80.5113 20.5046C80.1825 20.8313 79.7864 21.0793 79.3517 21.2303C79.1695 21.2989 78.9735 21.3212 78.7809 21.2952C78.5883 21.269 78.4048 21.1954 78.2463 21.0807C78.0849 20.9665 77.9532 20.8141 77.8625 20.6364C77.7717 20.4587 77.7247 20.2614 77.7255 20.0609V13.3893C77.7252 13.2 77.7671 13.0132 77.8486 12.8431C77.9298 12.673 78.0482 12.5242 78.1946 12.408C78.3411 12.2918 78.5116 12.2113 78.6931 12.1728C78.8748 12.1342 79.0626 12.1386 79.2423 12.1856C79.8759 12.3473 80.3478 12.6103 80.6428 12.9628C81.2038 13.6352 81.4854 14.9472 81.4854 16.8627C81.4854 18.6097 81.1583 19.834 80.5113 20.5046ZM78.2344 25.9073C78.4366 25.7534 78.6816 25.6691 78.9338 25.6665C79.0593 25.6668 79.184 25.6877 79.303 25.7285C79.7825 25.8752 80.2177 26.1431 80.5685 26.5073C81.2123 27.209 81.5375 28.5571 81.5375 30.5122C81.5375 32.3297 81.2242 33.547 80.6039 34.1231C80.2185 34.4578 79.7603 34.6936 79.2675 34.811C79.0865 34.8612 78.8965 34.8682 78.7123 34.8314C78.5281 34.7944 78.3549 34.7146 78.206 34.598C78.0571 34.4815 77.9365 34.3315 77.8538 34.1596C77.771 33.9878 77.7283 33.7988 77.7289 33.6073V26.9011C77.731 26.7067 77.7779 26.5154 77.8656 26.3428C77.9534 26.1701 78.0799 26.021 78.2344 25.9073Z" fill="white"/>
<path d="M94.7415 8.02441H93.7843C92.6469 8.02441 91.725 8.96517 91.725 10.1257V36.8709C91.725 38.0314 92.6469 38.9722 93.7843 38.9722H94.7415C95.8788 38.9722 96.8009 38.0314 96.8009 36.8709V10.1257C96.8009 8.96517 95.8788 8.02441 94.7415 8.02441Z" fill="white"/>
<path d="M113.399 8.02441H102.864C102.319 8.02577 101.796 8.2477 101.411 8.64157C101.025 9.03543 100.809 9.5691 100.808 10.1257V10.2065C100.809 10.7632 101.025 11.297 101.411 11.6912C101.796 12.0853 102.319 12.3076 102.864 12.3094H104.363C104.685 12.3099 104.994 12.4408 105.223 12.6736C105.451 12.9063 105.579 13.2218 105.579 13.5509V36.8692C105.579 37.1458 105.633 37.4198 105.736 37.6753C105.84 37.9308 105.992 38.163 106.184 38.3586C106.376 38.5542 106.603 38.7094 106.854 38.8152C107.104 38.9212 107.373 38.9756 107.644 38.9756H108.594C109.141 38.9746 109.664 38.7529 110.051 38.3586C110.437 37.9645 110.654 37.4301 110.655 36.8725V13.5509C110.656 13.2218 110.784 12.9063 111.012 12.6736C111.24 12.4408 111.549 12.3099 111.872 12.3094H113.389C113.935 12.3085 114.459 12.0867 114.845 11.6925C115.231 11.2983 115.449 10.7639 115.45 10.2065V10.1257C115.449 9.57013 115.233 9.0375 114.849 8.64388C114.464 8.25026 113.943 8.02758 113.399 8.02441Z" fill="white"/>
<path d="M138.054 9.91588C138.004 9.39674 137.766 8.91524 137.387 8.56547C137.008 8.2157 136.514 8.02278 136.003 8.02442H135.15C134.68 8.02672 134.225 8.19204 133.859 8.49325C133.493 8.79445 133.238 9.21365 133.137 9.68202L129.323 27.7197L125.588 9.69234C125.489 9.22047 125.234 8.79765 124.866 8.4942C124.498 8.19075 124.039 8.02497 123.566 8.02442H122.712C122.201 8.0236 121.708 8.21685 121.329 8.56651C120.95 8.91616 120.713 9.3972 120.662 9.91588L117.934 36.6508C117.903 36.9439 117.934 37.2405 118.023 37.521C118.112 37.8014 118.258 38.0597 118.451 38.279C118.644 38.4982 118.88 38.6734 119.144 38.7934C119.408 38.9136 119.694 38.9756 119.983 38.9756H120.62C121.136 38.9782 121.635 38.7818 122.015 38.4257C122.395 38.0694 122.629 37.5798 122.671 37.0549L123.979 21.7667L127.247 37.3128C127.347 37.7824 127.601 38.2029 127.967 38.5051C128.333 38.8075 128.789 38.9733 129.261 38.9756C129.728 38.9775 130.183 38.8159 130.548 38.5179C130.914 38.2197 131.168 37.803 131.269 37.3369L134.724 21.7806L135.988 37.0515C136.034 37.5751 136.27 38.0624 136.65 38.4181C137.03 38.7739 137.525 38.9725 138.041 38.9756H138.629C138.917 38.9756 139.202 38.9141 139.465 38.7949C139.728 38.6757 139.964 38.5014 140.157 38.2835C140.35 38.0656 140.496 37.8087 140.586 37.5296C140.676 37.2505 140.707 36.9551 140.678 36.6629L138.054 9.91588Z" fill="white"/>
<path d="M155.003 9.65279C154.899 9.18906 154.644 8.77509 154.279 8.47909C153.914 8.1831 153.462 8.02273 152.996 8.02443H152.133C151.666 8.02259 151.213 8.18333 150.848 8.48006C150.483 8.77677 150.228 9.19171 150.126 9.65623L144.107 36.3963C144.038 36.7049 144.037 37.0255 144.105 37.3343C144.173 37.6433 144.309 37.9324 144.502 38.1803C144.695 38.4282 144.941 38.6285 145.22 38.7661C145.5 38.9039 145.806 38.9755 146.116 38.9756H146.743C147.22 38.9748 147.682 38.806 148.05 38.4977C148.419 38.1892 148.671 37.7604 148.766 37.2836L149.403 34.0165C149.458 33.7352 149.607 33.4821 149.825 33.3001C150.042 33.1181 150.315 33.0182 150.596 33.0174H154.543C154.824 33.0179 155.097 33.1179 155.315 33.3004C155.532 33.4827 155.681 33.7365 155.736 34.0183L156.363 37.2715C156.456 37.7493 156.708 38.1794 157.077 38.4888C157.445 38.7981 157.908 38.9677 158.385 38.9687H159.059C159.369 38.9687 159.676 38.8971 159.955 38.7593C160.235 38.6217 160.48 38.4215 160.673 38.1734C160.866 37.9255 161.001 37.6362 161.07 37.3274C161.138 37.0184 161.136 36.6978 161.066 36.3895L155.003 9.65279ZM154.265 28.6585C154.151 28.8007 154.007 28.9152 153.845 28.9937C153.682 29.0722 153.504 29.1129 153.324 29.1126H151.826C151.647 29.1126 151.47 29.0725 151.309 28.995C151.147 28.9174 151.004 28.8046 150.889 28.6642C150.775 28.5237 150.693 28.3594 150.648 28.1827C150.603 28.0062 150.597 27.8216 150.63 27.6423L152.52 17.2823L154.524 27.6268C154.559 27.8077 154.554 27.9941 154.509 28.1726C154.464 28.3512 154.38 28.5171 154.265 28.6585Z" fill="white"/>
<path d="M175.797 8.02441H167.678C167.132 8.02487 166.607 8.2464 166.222 8.64036C165.835 9.03432 165.619 9.5685 165.619 10.1257V36.8692C165.617 37.427 165.835 37.9623 166.22 38.3573C166.607 38.7522 167.13 38.9746 167.678 38.9756H168.588C169.136 38.9746 169.66 38.7529 170.045 38.3586C170.432 37.9645 170.649 37.4301 170.651 36.8725V26.4696C170.651 26.1402 170.778 25.8242 171.007 25.5911C171.235 25.358 171.543 25.2269 171.867 25.2264H175.038C175.584 25.2259 176.109 25.0045 176.494 24.6106C176.881 24.2166 177.099 23.6825 177.099 23.1251V23.0444C177.099 22.487 176.881 21.9529 176.494 21.5589C176.109 21.165 175.584 20.9436 175.038 20.9431H171.862C171.538 20.9426 171.23 20.8115 171.002 20.5784C170.773 20.3452 170.645 20.0293 170.645 19.6999V13.5509C170.646 13.2218 170.775 12.9063 171.002 12.6736C171.23 12.4408 171.54 12.3099 171.862 12.3094H175.797C176.343 12.309 176.868 12.0873 177.253 11.693C177.64 11.2987 177.858 10.7641 177.858 10.2065V10.1257C177.858 9.56821 177.64 9.03375 177.253 8.63974C176.866 8.24573 176.343 8.02441 175.797 8.02441Z" fill="white"/>
<path d="M185.593 8.02441H184.636C183.498 8.02441 182.576 8.96517 182.576 10.1257V36.8709C182.576 38.0314 183.498 38.9722 184.636 38.9722H185.593C186.731 38.9722 187.653 38.0314 187.653 36.8709V10.1257C187.653 8.96517 186.731 8.02441 185.593 8.02441Z" fill="white"/>
<path d="M209.922 36.3963L203.861 9.6528C203.759 9.18891 203.503 8.77476 203.138 8.47872C202.774 8.18267 202.32 8.02243 201.854 8.02444H200.994C200.526 8.02221 200.072 8.18277 199.706 8.47951C199.342 8.77628 199.087 9.19143 198.985 9.65624L192.968 36.3963C192.898 36.7048 192.896 37.0255 192.964 37.3345C193.033 37.6436 193.168 37.9329 193.361 38.181C193.554 38.4291 193.8 38.6293 194.079 38.7669C194.359 38.9046 194.664 38.9759 194.975 38.9756H195.602C196.079 38.9751 196.54 38.8065 196.909 38.498C197.278 38.1895 197.53 37.7606 197.624 37.2836L198.261 34.0166C198.317 33.735 198.466 33.4819 198.684 33.2999C198.902 33.1179 199.175 33.0181 199.456 33.0174H203.401C203.684 33.0179 203.957 33.1177 204.175 33.3002C204.392 33.4826 204.54 33.7363 204.596 34.0183L205.223 37.2715C205.316 37.7494 205.568 38.1797 205.937 38.4891C206.306 38.7986 206.769 38.968 207.245 38.9687H207.92C208.23 38.9687 208.536 38.8971 208.815 38.7594C209.095 38.6217 209.34 38.4215 209.534 38.1734C209.727 37.9255 209.862 37.6362 209.93 37.3274C209.998 37.0184 209.997 36.6978 209.927 36.3895L209.922 36.3963ZM203.136 28.6586C203.022 28.8007 202.879 28.9152 202.717 28.9937C202.554 29.0722 202.377 29.1129 202.197 29.1126H200.698C200.519 29.1122 200.344 29.072 200.181 28.9943C200.02 28.9168 199.877 28.8038 199.762 28.6636C199.648 28.5232 199.565 28.3589 199.521 28.1826C199.476 28.006 199.469 27.8216 199.502 27.6423L201.394 17.2823L203.385 27.6268C203.42 27.8067 203.417 27.9928 203.375 28.1713C203.333 28.3497 203.251 28.5163 203.136 28.6586Z" fill="white"/>
</g>
<defs>
<linearGradient id="paint0_linear_892_47" x1="-10.334" y1="-117.579" x2="102.905" y2="-112.329" gradientUnits="userSpaceOnUse">
<stop stop-color="#F94F2B"/>
<stop offset="0.473958" stop-color="#FE8349"/>
<stop offset="1" stop-color="#EF4E32"/>
</linearGradient>
<linearGradient id="paint1_linear_892_47" x1="5.90641" y1="2.78655e-05" x2="69.3997" y2="5.33966" gradientUnits="userSpaceOnUse">
<stop stop-color="#F94F2B"/>
<stop offset="0.473958" stop-color="#FE8349"/>
<stop offset="1" stop-color="#EF4E32"/>
</linearGradient>
<clipPath id="clip0_892_47">
<rect width="210" height="47" fill="white"/>
</clipPath>
</defs>
</svg>
