<svg width="28" height="29" viewBox="0 0 28 29" fill="none" xmlns="http://www.w3.org/2000/svg">
<g clip-path="url(#clip0_95_1999)">
<path fill-rule="evenodd" clip-rule="evenodd" d="M4.96285 5.16663H19.0375C19.5492 5.16661 19.9908 5.1666 20.3563 5.19153C20.7411 5.2178 21.1259 5.27555 21.5063 5.43305C22.3638 5.78827 23.0452 6.46964 23.4004 7.32723C23.5579 7.70749 23.6156 8.09238 23.642 8.47718C23.6668 8.84265 23.6668 9.28421 23.6668 9.79597V19.204C23.6668 19.7157 23.6668 20.1572 23.642 20.5228C23.6156 20.9075 23.5579 21.2924 23.4004 21.6727C23.0452 22.5302 22.3638 23.2117 21.5063 23.5668C21.1259 23.7243 20.7411 23.7821 20.3563 23.8084C19.9908 23.8333 19.5492 23.8333 19.0375 23.8333H4.96284C4.45108 23.8333 4.00952 23.8333 3.64405 23.8084C3.25925 23.7821 2.87436 23.7243 2.4941 23.5668C1.63651 23.2117 0.955143 22.5302 0.599917 21.6727C0.442417 21.2924 0.384666 20.9075 0.358405 20.5228C0.333473 20.1572 0.333485 19.7157 0.333497 19.204V9.79598C0.333485 9.28422 0.333473 8.84265 0.358405 8.47718C0.384666 8.09238 0.442417 7.70749 0.599917 7.32723C0.955143 6.46964 1.63651 5.78827 2.4941 5.43305C2.87436 5.27555 3.25925 5.2178 3.64405 5.19153C4.00952 5.1666 4.45109 5.16661 4.96285 5.16663ZM3.03719 7.82402C3.46149 7.33912 4.19855 7.28998 4.68346 7.71428L11.2319 13.4441C11.6717 13.829 12.3286 13.829 12.7684 13.4441L19.3169 7.71428C19.8018 7.28998 20.5389 7.33912 20.9631 7.82402C21.3874 8.30894 21.3383 9.04599 20.8534 9.47028L14.3049 15.2002C12.9853 16.3548 11.015 16.3548 9.69541 15.2002L3.14695 9.47028C2.66203 9.04599 2.6129 8.30894 3.03719 7.82402Z" fill="#1A1C21"/>
</g>
<defs>
<clipPath id="clip0_95_1999">
<rect width="28" height="28" fill="white" transform="translate(0 0.5)"/>
</clipPath>
</defs>
</svg>
