<svg width="55" height="18" viewBox="0 0 55 18" fill="none" xmlns="http://www.w3.org/2000/svg">
<path d="M23.843 17.7H19.3551L22.16 0.310721H26.6483L23.843 17.7ZM15.5796 0.310721L11.3011 12.2712L10.7948 9.69563L10.7953 9.69656L9.28517 1.87642C9.28517 1.87642 9.10257 0.310721 7.15627 0.310721H0.0829981L0 0.605163C0 0.605163 2.16302 1.05915 4.69446 2.59276L8.59352 17.7004H13.2695L20.4097 0.310721H15.5796ZM50.8792 17.7H55L51.4071 0.310256H47.7995C46.1335 0.310256 45.7277 1.60617 45.7277 1.60617L39.0344 17.7H43.7127L44.6483 15.117H50.3535L50.8792 17.7ZM45.9408 11.5488L48.2988 5.04132L49.6254 11.5488H45.9408ZM39.3853 4.49244L40.0258 0.758197C40.0258 0.758197 38.0495 0 35.9893 0C33.7622 0 28.4734 0.981936 28.4734 5.75672C28.4734 10.2492 34.6807 10.305 34.6807 12.6647C34.6807 15.0244 29.1129 14.6016 27.2754 13.1136L26.6082 17.0181C26.6082 17.0181 28.6122 18 31.6739 18C34.7365 18 39.3567 16.4003 39.3567 12.0465C39.3567 7.52523 33.0936 7.10427 33.0936 5.13854C33.0941 3.17234 37.4648 3.42491 39.3853 4.49244Z" fill="white" fill-opacity="0.6"/>
<path d="M10.7953 9.6961L9.28517 1.87596C9.28517 1.87596 9.10257 0.310258 7.15627 0.310258H0.0829981L0 0.604699C0 0.604699 3.39969 1.31545 6.66059 3.97845C9.77855 6.52376 10.7953 9.6961 10.7953 9.6961Z" fill="white" fill-opacity="0.6"/>
</svg>
