<svg width="22" height="17" viewBox="0 0 22 17" fill="none" xmlns="http://www.w3.org/2000/svg">
<path d="M21.6186 4.04015V14.7833C21.6174 15.2187 21.4439 15.636 21.136 15.9439C20.8281 16.2518 20.4109 16.4253 19.9754 16.4265H2.02597C1.59054 16.4253 1.17327 16.2518 0.865371 15.9439C0.557472 15.636 0.383979 15.2187 0.382812 14.7833V4.04015C0.383979 3.60472 0.557472 3.18745 0.865371 2.87955C1.17327 2.57165 1.59054 2.39816 2.02597 2.397H6.3026V1.8591C6.30377 1.42367 6.47726 1.0064 6.78516 0.698501C7.09306 0.390602 7.51033 0.217109 7.94576 0.215942H14.0557C14.4911 0.217109 14.9084 0.390602 15.2163 0.698501C15.5242 1.0064 15.6976 1.42367 15.6988 1.8591V2.397H19.9754C20.4109 2.39816 20.8281 2.57165 21.136 2.87955C21.4439 3.18745 21.6174 3.60472 21.6186 4.04015ZM16.0348 9.41173C16.0348 8.41608 15.7396 7.44279 15.1864 6.61493C14.6333 5.78708 13.847 5.14184 12.9272 4.76083C12.0073 4.37981 10.9951 4.28011 10.0186 4.47436C9.04208 4.6686 8.14509 5.14805 7.44106 5.85208C6.73702 6.55611 6.25757 7.45311 6.06333 8.42963C5.86909 9.40615 5.96878 10.4183 6.3498 11.3382C6.73082 12.2581 7.37605 13.0443 8.20391 13.5974C9.03176 14.1506 10.0051 14.4458 11.0007 14.4458C12.3358 14.4458 13.6163 13.9155 14.5604 12.9714C15.5044 12.0273 16.0348 10.7469 16.0348 9.41173ZM13.3984 7.01257C13.9535 7.56701 14.2991 8.29676 14.3765 9.07748C14.4538 9.8582 14.258 10.6416 13.8225 11.2941C13.387 11.9467 12.7387 12.428 11.988 12.6562C11.2374 12.8843 10.4309 12.8451 9.70589 12.5452C8.98092 12.2453 8.38237 11.7033 8.01222 11.0116C7.64207 10.3199 7.52323 9.52118 7.67595 8.75165C7.82867 7.98211 8.2435 7.28934 8.84975 6.79138C9.456 6.29342 10.2162 6.02109 11.0007 6.02078C11.4462 6.01959 11.8875 6.10677 12.299 6.27726C12.7106 6.44775 13.0843 6.69818 13.3984 7.01405V7.01257ZM12.4508 2.20542C12.4505 2.36812 12.4985 2.52725 12.5887 2.66267C12.6789 2.79809 12.8072 2.90372 12.9574 2.96619C13.1077 3.02865 13.273 3.04515 13.4326 3.01358C13.5923 2.98202 13.7389 2.90382 13.8541 2.78888C13.9692 2.67393 14.0477 2.52741 14.0795 2.36786C14.1114 2.2083 14.0952 2.04289 14.033 1.89254C13.9708 1.7422 13.8654 1.61368 13.7301 1.52326C13.5949 1.43284 13.4358 1.38457 13.2731 1.38457C13.0553 1.38457 12.8464 1.47101 12.6922 1.6249C12.538 1.7788 12.4512 1.98758 12.4508 2.20542Z" fill="#B4B5B8"/>
</svg>
