<svg width="40" height="40" viewBox="0 0 40 40" fill="none" xmlns="http://www.w3.org/2000/svg">
<g id="find-svgrepo-com 1">
<path id="Vector" d="M16.725 30.115C19.0251 30.1171 21.2865 29.5227 23.2883 28.3899L28.8417 33.9433C29.5182 34.6198 30.4358 34.9999 31.3925 34.9999C32.3493 34.9999 33.2668 34.6198 33.9433 33.9433C34.6199 33.2668 34.9999 32.3492 34.9999 31.3925C34.9999 30.4357 34.6199 29.5181 33.9433 28.8416L28.39 23.2883C29.9781 20.4688 30.4911 17.1696 29.8342 14.001C29.1773 10.8325 27.3949 8.00914 24.8169 6.05343C22.2388 4.09772 19.0396 3.14204 15.8112 3.36324C12.5829 3.58444 9.5439 4.96755 7.25668 7.25662C5.38398 9.12924 4.10865 11.5151 3.59197 14.1126C3.07528 16.71 3.34045 19.4024 4.35393 21.8491C5.36742 24.2959 7.0837 26.3871 9.28574 27.8584C11.4878 29.3297 14.0767 30.115 16.725 30.115ZM9.61334 9.61329C11.2586 7.96881 13.4231 6.94563 15.7381 6.71809C18.0531 6.49055 20.3754 7.07271 22.3094 8.36539C24.2433 9.65807 25.6692 11.5813 26.3441 13.8074C27.0191 16.0335 26.9013 18.4248 26.0109 20.5738C25.1204 22.7228 23.5124 24.4966 21.4609 25.593C19.4093 26.6894 17.041 27.0405 14.7595 26.5866C12.4781 26.1326 10.4246 24.9017 8.94892 23.1035C7.47325 21.3053 6.66669 19.0511 6.66668 16.725C6.66264 15.4035 6.92103 14.0944 7.42686 12.8736C7.93269 11.6528 8.67589 10.5446 9.61334 9.61329Z" fill="white" fill-opacity="0.1"/>
</g>
</svg>
