<svg width="28" height="29" viewBox="0 0 28 29" fill="none" xmlns="http://www.w3.org/2000/svg">
<g clip-path="url(#clip0_26_949)">
<path d="M22.4001 5.63334L3.38338 12.9833C2.10005 13.45 2.10005 14.2667 3.15005 14.5L7.93338 16.0167L9.80005 21.6167C10.0334 22.2 9.91672 22.4333 10.5001 22.4333C10.9667 22.4333 11.2001 22.2 11.4334 21.9667C11.5501 21.85 12.6 20.8 13.7667 19.6333L18.6667 23.25C19.6 23.7167 20.1834 23.4833 20.4167 22.4333L23.6834 7.15C24.0334 5.86667 23.2167 5.16667 22.4001 5.63334ZM19.9501 9.13334L10.8501 17.4167L10.5001 21.2667L8.63338 15.6667L19.3667 8.9C19.8334 8.55 20.3001 8.78334 19.9501 9.13334Z" fill="#1A1C21"/>
</g>
<defs>
<clipPath id="clip0_26_949">
<rect width="28" height="28" fill="white" transform="translate(0 0.5)"/>
</clipPath>
</defs>
</svg>
