<svg width="56" height="49" viewBox="0 0 56 49" fill="none" xmlns="http://www.w3.org/2000/svg">
<path d="M37.0691 16.3923L37.069 16.3874L37.069 11.0221C37.069 9.61594 36.7796 8.64391 36.282 8.02426C35.8066 7.43236 35.0478 7.09408 33.8957 7.09403L37.0691 16.3923ZM37.0691 16.3923C37.0721 16.7011 37.0081 17.0071 36.8814 17.2898C36.7549 17.5716 36.569 17.8235 36.336 18.0283C35.7328 18.5431 34.6971 19.0226 33.2407 19.3711C31.7924 19.7176 29.9679 19.9252 27.8274 19.9252C23.5225 19.9252 20.7323 19.0862 19.381 18.0048C19.1279 17.8004 18.9248 17.5423 18.7862 17.2498C18.6477 16.9572 18.5775 16.6377 18.5806 16.3149H18.5806M37.0691 16.3923L18.5806 16.3149M18.5806 16.3149V16.31M18.5806 16.3149V16.31M18.5806 16.31V11.9828C18.5806 10.6661 18.8632 9.75962 19.3464 9.18063M18.5806 16.31L19.3464 9.18063M19.3464 9.18063C19.8154 8.61878 20.5326 8.30061 21.5907 8.29528M19.3464 9.18063L21.5907 8.29528M21.5907 8.29528C22.6519 8.29552 23.3771 8.61355 23.8564 9.18239C24.3495 9.76776 24.6358 10.6743 24.6358 11.9828V14.4274C24.6358 15.1319 25.2477 15.5169 25.7525 15.7064C26.3029 15.9131 27.0019 16.0041 27.6734 16.0007C28.3449 15.9974 29.0428 15.8994 29.5911 15.6885C30.0921 15.4958 30.7033 15.1077 30.6984 14.4054M21.5907 8.29528L33.8955 7.09403C32.7586 7.09459 31.9891 7.42924 31.4902 8.02339C30.9775 8.63408 30.6781 9.60389 30.6779 11.0207L30.6779 11.0191L30.1779 11.0221H30.6779L30.6984 14.4054M30.6984 14.4054L30.6984 14.4058L30.1984 14.4089L30.6984 14.4054ZM28.2014 2.928L28.2 2.9295C27.8896 3.25793 27.4688 3.46401 27.0155 3.50834L27.0609 3.97311L27.0155 3.50834C26.5623 3.55267 26.1085 3.43207 25.7391 3.16977L25.7392 3.16972L25.7328 3.16534C25.4203 2.95068 25.0923 2.75941 24.7514 2.59309L24.7514 2.59306L24.747 2.59096C23.4663 1.98157 22.0603 1.67699 20.6406 1.70125C18.1282 1.70221 16.0909 2.53298 14.588 4.22452C13.0844 5.91669 12.3689 8.29897 12.3689 11.2964V17.0462C9.60319 17.6602 6.78131 18.539 4.60687 19.8005C2.33667 21.1175 0.654846 22.9263 0.654846 25.3815C0.654846 27.0933 1.47901 28.5911 3.0113 29.8581C4.53172 31.1153 6.76911 32.1653 9.67299 33.0216C14.5329 34.4553 20.9311 35.2392 27.6883 35.2392C34.4455 35.2392 40.8436 34.4553 45.7036 33.0216C48.6075 32.1653 50.8449 31.1153 52.3653 29.8581C53.8976 28.5911 54.7218 27.0933 54.7218 25.3815C54.7218 23.3135 53.4538 21.4776 51.3929 20.0436C49.3966 18.6545 46.6013 17.5979 43.2774 17.0151V10.61C43.2774 7.40928 42.558 4.8888 41.0413 3.12829C39.5163 1.35826 37.3487 0.5 34.6164 0.5C32.695 0.5 31.0397 0.904035 29.6765 1.74095C29.1344 2.07037 28.6384 2.4695 28.2014 2.928ZM43.9859 28.055L43.9857 28.055C39.6331 29.2906 33.8407 29.9759 27.6883 29.9759C21.536 29.9759 15.7486 29.2906 11.3907 28.055C9.01428 27.3812 7.56918 26.6886 6.72345 26.1455C6.30052 25.8739 6.03343 25.6435 5.87543 25.4768C5.84698 25.4468 5.8226 25.4194 5.80182 25.3947C5.85799 25.3268 5.93911 25.2399 6.05262 25.1371C6.36714 24.8523 6.91614 24.4583 7.83059 24.0165L7.8333 24.0152C9.0484 23.4192 10.621 22.8863 12.4727 22.4256C12.5742 22.7936 12.7442 23.1411 12.9755 23.4496C13.3237 23.9142 13.7966 24.2713 14.3394 24.4803L14.3394 24.4804L14.3487 24.4838C14.378 24.4944 14.4077 24.5052 14.438 24.5161C16.3392 25.2061 20.1986 26.6067 27.9173 26.6067C35.5188 26.6067 39.3103 25.2285 41.1803 24.5487C41.2063 24.5393 41.232 24.53 41.2572 24.5208L41.2572 24.5209L41.265 24.5179C41.826 24.3035 42.313 23.932 42.6665 23.4478L42.6666 23.4477C42.9067 23.1186 43.0781 22.7471 43.1728 22.3551C45.533 22.8414 47.1561 23.5454 48.1932 24.1814C48.7492 24.5223 49.1305 24.8398 49.3665 25.088C49.4722 25.1992 49.5434 25.2909 49.5876 25.359C49.5631 25.3914 49.5304 25.4308 49.4879 25.4768C49.3343 25.6426 49.0708 25.8728 48.6494 26.1448C47.8071 26.6886 46.3626 27.3811 43.9859 28.055ZM5.70347 25.2568C5.70348 25.2568 5.70367 25.2572 5.704 25.2579L5.70347 25.2568ZM5.70254 25.5359C5.70148 25.5385 5.70082 25.5398 5.70074 25.5399C5.70065 25.54 5.70119 25.5387 5.70254 25.5359ZM49.6458 25.2698C49.6466 25.2676 49.6471 25.2665 49.6472 25.2666C49.6472 25.2667 49.6467 25.2677 49.6458 25.2698Z" fill="url(#paint0_linear_1120_2466)" stroke="url(#paint1_linear_1120_2466)"/>
<path d="M41.8225 42.7407L35.6509 38.0301C35.3632 37.7983 35.0039 37.6718 34.6333 37.6718C34.2627 37.6718 33.9035 37.7983 33.6158 38.0301L28.6584 41.8172C28.3703 42.048 28.0111 42.1738 27.6409 42.1738C27.2704 42.1738 26.9114 42.048 26.6232 41.8172L21.4607 37.8786C21.173 37.647 20.8137 37.5205 20.4432 37.5205C20.0726 37.5205 19.7132 37.647 19.4255 37.8786L13.8288 42.1553C12.8961 42.8687 12.5959 44.403 13.1606 45.584C13.7254 46.7651 14.938 47.1437 15.8742 46.4253L19.4357 43.7098C19.7234 43.4782 20.0828 43.3517 20.4532 43.3517C20.8238 43.3517 21.1832 43.4782 21.4709 43.7098L26.6198 47.6433C26.908 47.8742 27.2672 48.0001 27.6374 48.0001C28.0077 48.0001 28.3669 47.8742 28.6549 47.6433L33.6124 43.8563C33.9004 43.6255 34.2596 43.4995 34.6299 43.4995C35.0003 43.4995 35.3593 43.6255 35.6475 43.8563L39.7771 47.0108C40.7099 47.7242 41.9243 47.3472 42.4907 46.1696C43.0555 44.9901 42.757 43.4541 41.8225 42.7407Z" fill="url(#paint2_linear_1120_2466)" stroke="url(#paint3_linear_1120_2466)"/>
<defs>
<linearGradient id="paint0_linear_1120_2466" x1="-9.19904" y1="-116.579" x2="104.04" y2="-111.329" gradientUnits="userSpaceOnUse">
<stop stop-color="#F94F2B"/>
<stop offset="0.473958" stop-color="#FE8349"/>
<stop offset="1" stop-color="#EF4E32"/>
</linearGradient>
<linearGradient id="paint1_linear_1120_2466" x1="-9.19904" y1="-116.579" x2="104.04" y2="-111.329" gradientUnits="userSpaceOnUse">
<stop stop-color="#F94F2B"/>
<stop offset="0.473958" stop-color="#FE8349"/>
<stop offset="1" stop-color="#EF4E32"/>
</linearGradient>
<linearGradient id="paint2_linear_1120_2466" x1="7.04142" y1="1.00003" x2="70.5347" y2="6.33966" gradientUnits="userSpaceOnUse">
<stop stop-color="#F94F2B"/>
<stop offset="0.473958" stop-color="#FE8349"/>
<stop offset="1" stop-color="#EF4E32"/>
</linearGradient>
<linearGradient id="paint3_linear_1120_2466" x1="7.04142" y1="1.00003" x2="70.5347" y2="6.33966" gradientUnits="userSpaceOnUse">
<stop stop-color="#F94F2B"/>
<stop offset="0.473958" stop-color="#FE8349"/>
<stop offset="1" stop-color="#EF4E32"/>
</linearGradient>
</defs>
</svg>
