<svg width="40" height="40" viewBox="0 0 40 40" fill="none" xmlns="http://www.w3.org/2000/svg">
<g id="btc-svgrepo-com 1">
<path id="Vector" d="M26.2781 19.269C27.751 18.4937 28.6885 17.1148 28.4709 14.8232C28.1862 11.6864 25.684 10.6356 22.37 10.3425V6H19.7922V10.2217C19.1224 10.2217 18.4365 10.2392 17.7498 10.2559V6H15.1719V10.3425C14.2242 10.3722 13.1201 10.3574 10 10.3425V13.1687C12.0348 13.1319 13.1031 12.9972 13.3479 14.3402V26.2302C13.1924 27.296 12.3637 27.1428 10.5193 27.1096L10.0008 30.263C14.701 30.263 15.1736 30.2805 15.1736 30.2805V33.9991H17.7515V30.3321C18.4544 30.3496 19.1403 30.3496 19.7939 30.3496V34H22.3717V30.2814C26.6903 30.0399 29.5776 28.9199 29.9626 24.7323C30.2635 21.3724 28.7242 19.8727 26.2798 19.2698L26.2781 19.269ZM17.7999 13.3585C19.2559 13.3585 23.809 12.893 23.809 16.0123C23.809 18.9933 19.2559 18.6486 17.7999 18.6486V13.3585ZM17.7999 27.1262V21.3015C19.5406 21.3015 24.8714 20.8019 24.8714 24.2134C24.8714 27.5051 19.5406 27.1253 17.7999 27.1253V27.1262Z" fill="url(#paint0_linear_264_605)"/>
</g>
<defs>
<linearGradient id="paint0_linear_264_605" x1="20" y1="6" x2="20" y2="34" gradientUnits="userSpaceOnUse">
<stop stop-color="#22252A"/>
<stop offset="1" stop-color="#191B20"/>
</linearGradient>
</defs>
</svg>
