<svg width="17" height="11" viewBox="0 0 17 11" fill="none" xmlns="http://www.w3.org/2000/svg">
<g id="Group 4326">
<path id="Vector" d="M5.91743 0.608092C5.91783 0.37035 5.72546 0.177979 5.48772 0.178378C5.24998 0.178776 5.05696 0.371792 5.05656 0.609534L5.0504 4.2734C5.04855 5.37534 4.15571 6.26818 3.05377 6.27003L1.82497 6.2721C1.65086 6.27239 1.49371 6.37752 1.42682 6.53849C1.35993 6.69946 1.39646 6.88456 1.51934 7.00744L5.16579 10.6539C5.33362 10.8217 5.60617 10.8213 5.77456 10.6529L9.43324 6.99418C9.55654 6.87089 9.59369 6.68567 9.52734 6.52492C9.46099 6.36418 9.30419 6.25957 9.13008 6.25986L7.91468 6.26189C6.8075 6.26373 5.9095 5.36573 5.91135 4.25856L5.91743 0.608092Z" fill="white" fill-opacity="0.5"/>
<path id="Vector_2" d="M11.0402 10.3497C11.0398 10.5874 11.2322 10.7798 11.4699 10.7794C11.7077 10.779 11.9007 10.586 11.9011 10.3482L11.9072 6.68436C11.9091 5.58242 12.8019 4.68959 13.9039 4.68773L15.1327 4.68566C15.3068 4.68537 15.4639 4.58024 15.5308 4.41928C15.5977 4.2583 15.5612 4.07321 15.4383 3.95032L11.7918 0.303871C11.624 0.136049 11.3515 0.136506 11.1831 0.304891L7.5244 3.96358C7.4011 4.08688 7.36395 4.2721 7.4303 4.43284C7.49665 4.59359 7.65345 4.69819 7.82756 4.6979L9.04296 4.69587C10.1501 4.69403 11.0481 5.59203 11.0463 6.69921L11.0402 10.3497Z" fill="white" fill-opacity="0.5"/>
</g>
</svg>
