<svg width="11" height="9" viewBox="0 0 11 9" fill="none" xmlns="http://www.w3.org/2000/svg">
<path id="Vector" d="M0.607359 4.04027C0.369618 4.03987 0.177247 4.23224 0.177645 4.46998C0.178043 4.70772 0.37106 4.90074 0.608802 4.90114L4.27267 4.9073C5.37461 4.90915 6.26744 5.80199 6.2693 6.90393L6.27137 8.13274C6.27166 8.30684 6.37679 8.46399 6.53776 8.53088C6.69873 8.59777 6.88382 8.56125 7.00671 8.43836L10.6532 4.79191C10.821 4.62409 10.8205 4.35153 10.6521 4.18315L6.99345 0.524457C6.87015 0.401159 6.68494 0.364011 6.52419 0.430365C6.36344 0.496714 6.25884 0.653514 6.25913 0.827619L6.26116 2.04302C6.263 3.1502 5.365 4.0482 4.25783 4.04636L0.607359 4.04027Z" fill="white" fill-opacity="0.5"/>
</svg>
