<svg width="13" height="13" viewBox="0 0 13 13" fill="none" xmlns="http://www.w3.org/2000/svg">
<path id="Vector" d="M0.202044 11.2014C-0.0673475 11.4699 -0.0673475 11.9051 0.202044 12.1736C0.471437 12.4421 0.908132 12.4421 1.17752 12.1736L6.17602 7.1919C6.95652 6.41402 8.21919 6.41402 8.99969 7.19189L11.2389 9.42361C11.4362 9.62023 11.7329 9.67908 11.9907 9.57266C12.2484 9.46623 12.4165 9.21552 12.4165 8.9375V0.6875C12.4165 0.307808 12.1077 0 11.7267 0H3.44901C3.17005 0 2.91851 0.167502 2.81172 0.424407C2.70494 0.681303 2.76399 0.977011 2.96127 1.17364L5.19098 3.39593C5.97518 4.17751 5.97518 5.44748 5.19098 6.22907L0.202044 11.2014Z" fill="white"/>
</svg>
