<svg width="9" height="12" viewBox="0 0 9 12" fill="none" xmlns="http://www.w3.org/2000/svg">
<path id="Vector" d="M5.20375 0.894469C5.20415 0.656727 5.01178 0.464356 4.77404 0.464755C4.53629 0.465153 4.34328 0.658169 4.34288 0.895911L4.33672 4.55978C4.33486 5.66172 3.44203 6.55455 2.34009 6.55641L1.11128 6.55848C0.937175 6.55877 0.780024 6.6639 0.713136 6.82487C0.646243 6.98584 0.682772 7.17093 0.805657 7.29382L4.45211 10.9403C4.61993 11.1081 4.89249 11.1076 5.06087 10.9392L8.71956 7.28056C8.84286 7.15726 8.88001 6.97204 8.81365 6.8113C8.7473 6.65055 8.5905 6.54595 8.4164 6.54624L7.20099 6.54827C6.09382 6.55011 5.19582 5.65211 5.19766 4.54493L5.20375 0.894469Z" fill="white" fill-opacity="0.5"/>
</svg>
